<?xml version="1.0" standalone="no"?>
<!DOCTYPE svg PUBLIC "-//W3C//DTD SVG 20010904//EN"
 "http://www.w3.org/TR/2001/REC-SVG-20010904/DTD/svg10.dtd">
<svg version="1.0" xmlns="http://www.w3.org/2000/svg"
 width="1498.000000pt" height="1498.000000pt" viewBox="0 0 1498.000000 1498.000000"
 preserveAspectRatio="xMidYMid meet">

<g transform="translate(0.000000,1498.000000) scale(0.100000,-0.100000)"
fill="#000000" stroke="none">
<path d="M10556 10534 c-3 -10 -57 -255 -121 -544 -108 -496 -114 -526 -97
-542 19 -18 180 -131 210 -147 15 -8 29 -3 69 24 28 19 53 31 57 28 3 -4 6 -1
6 5 0 15 86 73 95 64 5 -4 5 -1 1 6 -6 10 3 16 24 14 7 -1 6 62 -1 68 -10 9
-31 119 -24 130 3 5 2 10 -3 10 -9 0 -26 79 -27 120 0 8 -3 17 -7 20 -4 4 -9
24 -12 45 -2 22 -6 47 -10 55 -11 29 -27 113 -21 118 2 3 1 10 -4 16 -12 15
-33 115 -26 126 3 5 2 10 -3 12 -4 1 -25 84 -46 183 -42 196 -50 220 -60 189z"/>
<path d="M11390 9633 c-179 -117 -331 -217 -337 -221 -12 -7 -36 -179 -27
-194 3 -4 68 15 145 42 78 28 144 48 147 46 4 -2 13 2 20 10 7 8 9 14 5 14 -4
1 3 10 16 20 13 11 19 20 15 20 -5 1 2 10 15 20 13 11 19 20 15 20 -5 1 2 10
15 20 13 11 19 20 15 20 -5 1 2 10 15 20 13 11 19 20 15 20 -5 1 2 10 15 20
13 11 20 20 17 20 -3 0 46 70 110 155 64 86 115 157 113 159 -2 2 -150 -93
-329 -211z"/>
<path d="M9415 9829 c4 -8 93 -127 196 -265 l189 -251 60 -18 c33 -10 60 -22
60 -26 0 -5 7 -6 15 -3 8 4 15 1 15 -5 0 -6 7 -8 15 -5 8 4 15 1 15 -5 0 -6 7
-8 15 -5 8 4 15 2 15 -3 0 -5 8 -9 18 -9 9 -1 30 -5 46 -9 l29 -8 -7 67 c-13
131 15 103 -336 335 -319 212 -361 237 -345 210z"/>
<path d="M8120 9514 c47 -19 272 -107 500 -196 228 -89 417 -165 418 -170 2
-4 7 -6 11 -4 4 3 77 -22 161 -54 l154 -60 188 0 c103 0 188 3 188 8 0 4 -37
44 -82 89 l-83 82 -400 91 c-692 157 -1110 250 -1125 250 -8 -1 23 -17 70 -36z"/>
<path d="M13030 9539 c-19 -5 -359 -81 -755 -170 l-720 -161 -85 -84 c-46 -46
-82 -85 -79 -88 9 -9 389 -16 389 -7 0 8 41 24 65 25 6 1 16 7 24 14 7 7 20
11 27 8 8 -3 14 -2 14 3 0 8 41 24 65 25 6 1 16 7 24 14 7 7 20 11 27 8 8 -3
14 -2 14 2 0 8 96 47 115 47 6 0 12 2 15 5 10 12 113 50 120 45 5 -3 10 -1 12
3 1 5 53 28 113 51 353 137 651 254 654 257 10 9 -6 10 -39 3z"/>
<path d="M1175 9148 c-3 -7 -4 -611 -3 -1343 l3 -1330 870 0 870 0 -867 2
-868 3 0 1335 0 1335 410 0 410 0 0 -1035 0 -1035 463 2 462 3 -457 2 -458 3
-2 1033 -3 1032 -413 3 c-325 2 -414 0 -417 -10z"/>
<path d="M3055 9138 c-3 -7 -4 -611 -3 -1343 l3 -1330 3 1338 2 1337 885 0
885 0 0 -295 0 -295 -475 0 -475 0 2 -207 3 -208 2 202 3 203 473 2 472 3 0
300 0 300 -888 3 c-705 2 -889 0 -892 -10z"/>
<path d="M5122 7808 l3 -1343 2 1337 3 1338 473 3 472 2 -477 3 -478 2 2
-1342z"/>
<path d="M6233 9133 c43 -2 110 -2 150 0 40 1 5 3 -78 3 -82 0 -115 -2 -72 -3z"/>
<path d="M6461 9126 c2 -2 33 -6 69 -9 41 -3 54 -2 35 3 -31 8 -112 13 -104 6z"/>
<path d="M6608 9103 c7 -3 16 -2 19 1 4 3 -2 6 -13 5 -11 0 -14 -3 -6 -6z"/>
<path d="M6670 9085 c46 -18 64 -17 25 0 -16 8 -37 14 -45 14 -8 0 1 -7 20
-14z"/>
<path d="M10425 9079 c-101 -13 -238 -54 -317 -96 -115 -60 -198 -172 -198
-265 l0 -28 653 0 c360 0 656 2 659 5 11 11 -14 111 -37 151 -53 91 -147 151
-310 199 -144 42 -296 53 -450 34z"/>
<path d="M6790 9035 c136 -73 231 -175 307 -330 24 -49 41 -79 37 -65 -26 96
-137 258 -223 327 -52 41 -160 103 -178 103 -4 0 21 -16 57 -35z"/>
<path d="M9210 8895 c-8 -2 -414 -18 -902 -36 -488 -18 -885 -36 -882 -39 3
-3 290 -26 637 -52 643 -48 675 -50 877 -62 63 -3 127 -9 143 -12 15 -3 58 -7
95 -9 37 -2 96 -5 132 -7 238 -15 280 -16 274 -7 -3 6 -71 59 -151 120 -147
109 -162 116 -223 104z"/>
<path d="M11681 8780 c-79 -60 -146 -112 -150 -116 -3 -4 41 -3 99 0 58 4 146
10 195 13 50 3 169 11 265 19 96 7 193 14 215 15 22 0 73 3 112 6 40 3 103 8
140 10 38 2 88 6 113 9 25 2 223 18 440 34 440 34 522 41 517 47 -8 8 -1627
74 -1762 72 -35 0 -59 -14 -184 -109z"/>
<path d="M13634 8598 c-58 -39 -92 -96 -99 -164 l-5 -49 13 55 c7 30 18 64 24
75 20 36 80 86 119 100 26 9 32 14 18 15 -12 0 -44 -15 -70 -32z"/>
<path d="M13803 8616 c50 -14 97 -50 128 -101 11 -16 19 -25 19 -19 0 6 -14
30 -31 53 -32 45 -95 81 -139 80 -16 0 -7 -5 23 -13z"/>
<path d="M5973 8613 c9 -2 25 -2 35 0 9 3 1 5 -18 5 -19 0 -27 -2 -17 -5z"/>
<path d="M6131 8607 c3 -4 22 -9 43 -11 83 -11 135 -71 162 -188 14 -61 14
-61 9 -13 -7 72 -49 151 -95 181 -33 22 -135 48 -119 31z"/>
<path d="M7141 8600 c0 -8 4 -24 9 -35 5 -13 9 -14 9 -5 0 8 -4 24 -9 35 -5
13 -9 14 -9 5z"/>
<path d="M13723 8593 c15 -2 39 -2 55 0 15 2 2 4 -28 4 -30 0 -43 -2 -27 -4z"/>
<path d="M13635 8559 c-39 -35 -65 -78 -65 -106 1 -10 7 -1 14 20 16 45 39 73
81 98 17 11 25 19 18 19 -7 0 -28 -14 -48 -31z"/>
<path d="M13835 8571 c41 -25 64 -53 81 -98 15 -38 15 -38 10 -5 -8 49 -74
122 -111 122 -5 0 4 -8 20 -19z"/>
<path d="M12440 8561 c-41 -4 26 -6 150 -7 163 0 199 2 130 7 -110 8 -175 8
-280 0z"/>
<path d="M8693 8543 c26 -2 67 -2 90 0 23 2 2 3 -48 3 -49 0 -68 -1 -42 -3z"/>
<path d="M10508 8543 c17 -2 47 -2 65 0 17 2 3 4 -33 4 -36 0 -50 -2 -32 -4z"/>
<path d="M12298 8543 c6 -2 18 -2 25 0 6 3 1 5 -13 5 -14 0 -19 -2 -12 -5z"/>
<path d="M12858 8543 c6 -2 18 -2 25 0 6 3 1 5 -13 5 -14 0 -19 -2 -12 -5z"/>
<path d="M13660 8426 c0 -104 3 -125 16 -130 9 -3 21 -3 27 1 6 4 2 10 -11 14
-21 8 -22 15 -22 120 l0 112 68 -6 c88 -7 100 -13 111 -51 5 -17 10 -23 10
-13 3 51 -47 77 -146 77 l-53 0 0 -124z"/>
<path d="M7161 8524 c0 -11 3 -14 6 -6 3 7 2 16 -1 19 -3 4 -6 -2 -5 -13z"/>
<path d="M8588 8533 c6 -2 18 -2 25 0 6 3 1 5 -13 5 -14 0 -19 -2 -12 -5z"/>
<path d="M8868 8533 c6 -2 18 -2 25 0 6 3 1 5 -13 5 -14 0 -19 -2 -12 -5z"/>
<path d="M10328 8533 c29 -2 74 -2 100 0 26 2 2 3 -53 3 -55 0 -76 -1 -47 -3z"/>
<path d="M10705 8530 c55 -4 129 -13 164 -20 35 -6 65 -9 68 -7 9 9 -126 28
-227 32 l-105 4 100 -9z"/>
<path d="M12238 8533 c6 -2 18 -2 25 0 6 3 1 5 -13 5 -14 0 -19 -2 -12 -5z"/>
<path d="M12928 8533 c7 -3 16 -2 19 1 4 3 -2 6 -13 5 -11 0 -14 -3 -6 -6z"/>
<path d="M8473 8501 c-72 -34 -213 -167 -213 -201 0 -6 -5 -10 -11 -10 -5 0
-8 -4 -4 -9 3 -5 1 -12 -4 -16 -7 -3 -9 37 -7 110 1 63 -1 115 -6 115 -9 0
-11 -210 -2 -235 5 -12 15 -3 41 37 66 102 155 179 249 217 27 11 42 20 34 20
-8 1 -43 -12 -77 -28z"/>
<path d="M10218 8523 c12 -2 30 -2 40 0 9 3 -1 5 -23 4 -22 0 -30 -2 -17 -4z"/>
<path d="M12198 8523 c7 -3 16 -2 19 1 4 3 -2 6 -13 5 -11 0 -14 -3 -6 -6z"/>
<path d="M12978 8523 c7 -3 16 -2 19 1 4 3 -2 6 -13 5 -11 0 -14 -3 -6 -6z"/>
<path d="M8965 8510 c27 -12 43 -12 25 0 -8 5 -22 9 -30 9 -10 0 -8 -3 5 -9z"/>
<path d="M10153 8513 c9 -2 23 -2 30 0 6 3 -1 5 -18 5 -16 0 -22 -2 -12 -5z"/>
<path d="M12135 8510 c-13 -5 -14 -9 -5 -9 8 0 24 4 35 9 13 5 14 9 5 9 -8 0
-24 -4 -35 -9z"/>
<path d="M13082 8491 c146 -53 251 -136 322 -255 20 -33 36 -55 36 -49 0 6
-23 45 -50 87 -54 79 -123 142 -205 183 -53 27 -151 63 -169 62 -6 0 23 -13
66 -28z"/>
<path d="M10108 8503 c7 -3 16 -2 19 1 4 3 -2 6 -13 5 -11 0 -14 -3 -6 -6z"/>
<path d="M13713 8475 c0 -22 2 -30 4 -17 2 12 2 30 0 40 -3 9 -5 -1 -4 -23z"/>
<path d="M13778 8500 c25 -10 28 -29 10 -49 -11 -11 -10 -13 2 -9 33 10 17 69
-19 67 -11 0 -9 -3 7 -9z"/>
<path d="M7172 8475 c0 -16 2 -22 5 -12 2 9 2 23 0 30 -3 6 -5 -1 -5 -18z"/>
<path d="M9066 8465 c86 -51 167 -143 221 -250 24 -49 41 -79 38 -65 -17 60
-90 181 -140 233 -47 48 -147 117 -171 117 -4 0 19 -16 52 -35z"/>
<path d="M10068 8493 c7 -3 16 -2 19 1 4 3 -2 6 -13 5 -11 0 -14 -3 -6 -6z"/>
<path d="M10965 8490 c11 -5 27 -9 35 -9 9 0 8 4 -5 9 -11 5 -27 9 -35 9 -9 0
-8 -4 5 -9z"/>
<path d="M12010 8459 c-107 -54 -218 -162 -273 -266 -37 -71 -78 -175 -76
-197 0 -6 12 23 27 64 69 190 177 318 335 395 51 25 87 45 81 45 -7 0 -49 -19
-94 -41z"/>
<path d="M9995 8475 c-39 -17 -21 -18 25 0 19 7 28 14 20 14 -8 0 -28 -6 -45
-14z"/>
<path d="M11060 8460 c8 -5 20 -10 25 -10 6 0 3 5 -5 10 -8 5 -19 10 -25 10
-5 0 -3 -5 5 -10z"/>
<path d="M9886 8428 c-77 -43 -163 -128 -203 -205 -47 -86 -41 -92 7 -7 46 83
129 164 215 211 33 18 56 32 50 32 -5 0 -36 -14 -69 -31z"/>
<path d="M13822 8427 c-18 -20 -19 -25 -7 -47 8 -14 14 -20 14 -15 1 6 -3 16
-8 24 -6 10 -3 20 12 32 12 9 19 20 16 23 -3 3 -15 -4 -27 -17z"/>
<path d="M7180 8416 c0 -14 4 -27 8 -30 5 -3 6 8 4 25 -5 35 -12 38 -12 5z"/>
<path d="M11140 8426 c0 -3 9 -10 20 -16 11 -6 20 -8 20 -6 0 3 -9 10 -20 16
-11 6 -20 8 -20 6z"/>
<path d="M13562 8420 c0 -8 4 -26 8 -40 6 -20 8 -21 8 -5 0 11 -3 29 -8 40 -5
12 -8 14 -8 5z"/>
<path d="M7455 7120 c0 -712 1 -1004 2 -647 2 356 2 938 0 1295 -1 356 -2 64
-2 -648z"/>
<path d="M11237 8356 c37 -33 64 -71 93 -128 44 -88 54 -91 16 -5 -26 59 -80
125 -130 159 -17 11 -8 0 21 -26z"/>
<path d="M13763 8366 c12 -18 27 -41 32 -50 15 -25 49 -25 52 -1 4 19 3 19 -7
2 -14 -23 -31 -11 -62 44 -12 22 -25 39 -30 39 -4 0 3 -15 15 -34z"/>
<path d="M13922 8380 c0 -14 2 -19 5 -12 2 6 2 18 0 25 -3 6 -5 1 -5 -13z"/>
<path d="M13712 8360 c0 -19 2 -27 5 -17 2 9 2 25 0 35 -3 9 -5 1 -5 -18z"/>
<path d="M13541 8364 c0 -11 3 -14 6 -6 3 7 2 16 -1 19 -3 4 -6 -2 -5 -13z"/>
<path d="M13933 8330 c-13 -31 -36 -59 -64 -79 -23 -17 -38 -31 -33 -31 33 0
132 122 122 150 -2 4 -13 -14 -25 -40z"/>
<path d="M7193 8320 c0 -25 2 -35 4 -22 2 12 2 32 0 45 -2 12 -4 2 -4 -23z"/>
<path d="M13580 8341 c0 -18 74 -91 91 -91 8 0 1 9 -16 20 -16 11 -40 34 -52
52 -13 18 -23 26 -23 19z"/>
<path d="M13910 8342 c0 -6 -17 -28 -37 -49 -24 -24 -29 -32 -13 -22 31 20 66
66 57 76 -4 3 -7 1 -7 -5z"/>
<path d="M13550 8331 c0 -6 4 -13 10 -16 6 -3 7 1 4 9 -7 18 -14 21 -14 7z"/>
<path d="M6353 8270 c0 -36 2 -50 4 -32 2 17 2 47 0 65 -2 17 -4 3 -4 -33z"/>
<path d="M13595 8272 c31 -35 74 -62 97 -62 7 1 -3 8 -22 16 -19 8 -51 29 -70
47 l-35 32 30 -33z"/>
<path d="M13788 8243 c7 -3 16 -2 19 1 4 3 -2 6 -13 5 -11 0 -14 -3 -6 -6z"/>
<path d="M7200 8170 c0 -35 3 -60 7 -56 7 7 5 108 -3 115 -2 2 -4 -24 -4 -59z"/>
<path d="M13718 8203 c7 -3 16 -2 19 1 4 3 -2 6 -13 5 -11 0 -14 -3 -6 -6z"/>
<path d="M13758 8203 c7 -3 16 -2 19 1 4 3 -2 6 -13 5 -11 0 -14 -3 -6 -6z"/>
<path d="M13440 8165 c0 -5 5 -17 10 -25 5 -8 10 -10 10 -5 0 6 -5 17 -10 25
-5 8 -10 11 -10 5z"/>
<path d="M9330 8110 c0 -5 5 -10 11 -10 5 0 7 5 4 10 -3 6 -8 10 -11 10 -2 0
-4 -4 -4 -10z"/>
<path d="M13465 8095 c7 -31 12 -41 19 -34 2 2 -3 18 -11 34 l-14 30 6 -30z"/>
<path d="M10423 8102 c-6 -4 25 -7 68 -7 60 0 82 -4 89 -15 7 -10 10 -11 10
-2 0 7 -12 17 -26 22 -30 12 -124 13 -141 2z"/>
<path d="M12573 8093 c15 -2 39 -2 55 0 15 2 2 4 -28 4 -30 0 -43 -2 -27 -4z"/>
<path d="M9341 8074 c0 -11 3 -14 6 -6 3 7 2 16 -1 19 -3 4 -6 -2 -5 -13z"/>
<path d="M10369 8070 l-24 -20 27 13 c16 6 28 15 28 20 0 11 -6 9 -31 -13z"/>
<path d="M12520 8079 c0 -5 5 -7 10 -4 6 3 10 8 10 11 0 2 -4 4 -10 4 -5 0
-10 -5 -10 -11z"/>
<path d="M12675 8079 c11 -6 31 -23 44 -38 13 -14 20 -19 16 -11 -15 28 -49
60 -64 60 -12 -1 -11 -3 4 -11z"/>
<path d="M9621 8064 c0 -11 3 -14 6 -6 3 7 2 16 -1 19 -3 4 -6 -2 -5 -13z"/>
<path d="M10620 8051 c15 -22 26 -55 30 -95 7 -60 7 -60 9 -13 1 53 -17 105
-45 127 -14 11 -12 7 6 -19z"/>
<path d="M12483 8058 c-31 -35 -52 -81 -57 -129 -3 -24 -3 -35 0 -24 19 71 39
119 61 145 29 35 26 40 -4 8z"/>
<path d="M11386 7840 c2 -129 4 -364 5 -522 0 -199 3 -288 11 -288 7 0 9 35 5
113 -4 61 -8 272 -9 467 -2 195 -6 380 -10 410 -3 30 -4 -51 -2 -180z"/>
<path d="M9351 8034 c0 -11 3 -14 6 -6 3 7 2 16 -1 19 -3 4 -6 -2 -5 -13z"/>
<path d="M10326 8008 c-8 -18 -17 -57 -21 -85 l-7 -53 -343 0 -344 0 -4 53 -3
52 -2 -57 -2 -58 354 0 354 0 8 48 c4 26 8 52 9 57 1 6 3 18 3 27 1 9 9 24 18
32 9 9 11 16 4 16 -6 0 -17 -15 -24 -32z"/>
<path d="M13482 8020 c0 -14 2 -19 5 -12 2 6 2 18 0 25 -3 6 -5 1 -5 -13z"/>
<path d="M9611 8014 c0 -11 3 -14 6 -6 3 7 2 16 -1 19 -3 4 -6 -2 -5 -13z"/>
<path d="M8333 7990 c-40 -24 -72 -86 -80 -153 -3 -29 -3 -50 0 -47 3 3 8 25
11 49 7 62 43 129 78 147 36 19 124 16 156 -4 25 -16 62 -81 62 -108 0 -10 3
-14 7 -11 13 14 -22 89 -54 118 -29 25 -42 29 -91 29 -39 0 -67 -6 -89 -20z"/>
<path d="M9367 7970 c22 -159 22 -161 18 -85 -2 39 -9 84 -14 100 -9 26 -10
24 -4 -15z"/>
<path d="M13492 7960 c0 -19 2 -27 5 -17 2 9 2 25 0 35 -3 9 -5 1 -5 -18z"/>
<path d="M11651 7964 c0 -11 3 -14 6 -6 3 7 2 16 -1 19 -3 4 -6 -2 -5 -13z"/>
<path d="M12751 7964 c0 -11 3 -14 6 -6 3 7 2 16 -1 19 -3 4 -6 -2 -5 -13z"/>
<path d="M6364 7765 c0 -115 2 -161 3 -102 2 59 2 154 0 210 -1 56 -3 8 -3
-108z"/>
<path d="M11642 7920 c0 -14 2 -19 5 -12 2 6 2 18 0 25 -3 6 -5 1 -5 -13z"/>
<path d="M12762 7900 c0 -19 2 -27 5 -17 2 9 2 25 0 35 -3 9 -5 1 -5 -18z"/>
<path d="M13503 7880 c0 -25 2 -35 4 -22 2 12 2 32 0 45 -2 12 -4 2 -4 -23z"/>
<path d="M11632 7870 c0 -14 2 -19 5 -12 2 6 2 18 0 25 -3 6 -5 1 -5 -13z"/>
<path d="M7212 7835 c0 -16 2 -22 5 -12 2 9 2 23 0 30 -3 6 -5 -1 -5 -18z"/>
<path d="M12410 7821 c0 -23 2 -41 4 -41 8 0 12 71 4 76 -4 3 -8 -13 -8 -35z"/>
<path d="M12773 7800 c0 -36 2 -50 4 -32 2 17 2 47 0 65 -2 17 -4 3 -4 -33z"/>
<path d="M8572 7825 c0 -16 2 -22 5 -12 2 9 2 23 0 30 -3 6 -5 -1 -5 -18z"/>
<path d="M10623 7835 c-3 -9 -22 -27 -42 -40 -19 -14 -31 -25 -25 -25 16 0 62
38 74 61 6 10 8 19 5 19 -3 0 -8 -7 -12 -15z"/>
<path d="M11622 7810 c0 -14 2 -19 5 -12 2 6 2 18 0 25 -3 6 -5 1 -5 -13z"/>
<path d="M13512 7763 l-2 -63 -367 -3 -368 -2 368 -3 c304 -2 369 0 373 12 3
7 3 38 1 67 l-3 54 -2 -62z"/>
<path d="M8240 7500 c0 -156 3 -281 6 -278 6 7 5 550 -1 557 -3 2 -5 -123 -5
-279z"/>
<path d="M9393 7700 c0 -47 2 -66 4 -42 2 23 2 61 0 85 -2 23 -4 4 -4 -43z"/>
<path d="M8583 7725 c0 -27 2 -38 4 -22 2 15 2 37 0 50 -2 12 -4 0 -4 -28z"/>
<path d="M10505 7760 c-13 -6 -15 -9 -5 -9 8 0 22 4 30 9 18 12 2 12 -25 0z"/>
<path d="M10430 7740 c-20 -6 -21 -8 -5 -8 11 0 29 3 40 8 25 11 -1 11 -35 0z"/>
<path d="M11614 7655 c0 -49 1 -71 3 -48 2 23 2 64 0 90 -2 26 -3 8 -3 -42z"/>
<path d="M10378 7723 c7 -3 16 -2 19 1 4 3 -2 6 -13 5 -11 0 -14 -3 -6 -6z"/>
<path d="M10328 7713 c7 -3 16 -2 19 1 4 3 -2 6 -13 5 -11 0 -14 -3 -6 -6z"/>
<path d="M10278 7703 c6 -2 18 -2 25 0 6 3 1 5 -13 5 -14 0 -19 -2 -12 -5z"/>
<path d="M10228 7693 c6 -2 18 -2 25 0 6 3 1 5 -13 5 -14 0 -19 -2 -12 -5z"/>
<path d="M10188 7683 c7 -3 16 -2 19 1 4 3 -2 6 -13 5 -11 0 -14 -3 -6 -6z"/>
<path d="M10138 7673 c6 -2 18 -2 25 0 6 3 1 5 -13 5 -14 0 -19 -2 -12 -5z"/>
<path d="M10098 7663 c7 -3 16 -2 19 1 4 3 -2 6 -13 5 -11 0 -14 -3 -6 -6z"/>
<path d="M10058 7653 c7 -3 16 -2 19 1 4 3 -2 6 -13 5 -11 0 -14 -3 -6 -6z"/>
<path d="M10018 7643 c7 -3 16 -2 19 1 4 3 -2 6 -13 5 -11 0 -14 -3 -6 -6z"/>
<path d="M7203 7545 c0 -79 1 -83 6 -35 4 30 4 71 0 90 -4 23 -7 4 -6 -55z"/>
<path d="M9880 7600 c-8 -5 -10 -10 -5 -10 6 0 17 5 25 10 8 5 11 10 5 10 -5
0 -17 -5 -25 -10z"/>
<path d="M9784 7554 c-108 -64 -194 -168 -219 -264 -3 -14 12 12 34 56 46 93
111 160 207 211 32 18 54 33 48 33 -5 0 -37 -16 -70 -36z"/>
<path d="M8594 7420 c0 -91 2 -128 3 -82 2 45 2 119 0 165 -1 45 -3 8 -3 -83z"/>
<path d="M3880 7310 l0 -240 503 2 502 3 -497 2 -498 3 0 230 0 230 443 3 442
2 -447 3 -448 2 0 -240z"/>
<path d="M12402 7378 c-1 -98 1 -178 6 -178 4 0 6 53 4 117 -4 218 -8 239 -10
61z"/>
<path d="M6353 7430 c0 -41 2 -58 4 -37 2 20 2 54 0 75 -2 20 -4 3 -4 -38z"/>
<path d="M11602 7465 c0 -16 2 -22 5 -12 2 9 2 23 0 30 -3 6 -5 -1 -5 -18z"/>
<path d="M10626 7425 c-11 -8 -15 -15 -10 -15 6 0 16 6 23 13 10 10 11 -25 8
-181 -5 -183 -7 -196 -31 -247 -31 -63 -69 -85 -146 -85 -65 0 -105 21 -129
68 -11 20 -20 32 -21 26 0 -19 45 -78 70 -91 37 -19 129 -16 170 5 25 12 43
33 64 75 28 57 29 63 34 253 3 110 1 194 -4 194 -5 0 -18 -7 -28 -15z"/>
<path d="M11614 7315 c0 -66 1 -92 3 -57 2 34 2 88 0 120 -2 31 -3 3 -3 -63z"/>
<path d="M7190 7365 c0 -27 2 -46 4 -44 8 8 10 78 3 85 -4 4 -7 -14 -7 -41z"/>
<path d="M10570 7400 c-12 -7 -10 -9 8 -7 12 0 22 5 22 9 0 11 -12 10 -30 -2z"/>
<path d="M10468 7361 c-36 -16 -80 -38 -96 -50 -29 -20 -63 -76 -61 -103 0
-11 20 25 23 42 2 11 60 65 68 63 4 -2 8 1 8 6 0 8 28 22 50 26 3 0 16 7 30
15 14 7 27 13 30 13 3 -1 12 3 20 8 31 18 -8 7 -72 -20z"/>
<path d="M9393 7310 c0 -41 2 -58 4 -37 2 20 2 54 0 75 -2 20 -4 3 -4 -38z"/>
<path d="M13147 7333 l362 -3 4 -28 c4 -25 4 -25 6 6 l1 32 -367 -2 -368 -3
362 -2z"/>
<path d="M6342 7300 c0 -19 2 -27 5 -17 2 9 2 25 0 35 -3 9 -5 1 -5 -18z"/>
<path d="M12784 7230 c0 -52 1 -74 3 -47 2 26 2 68 0 95 -2 26 -3 4 -3 -48z"/>
<path d="M7180 7245 c0 -19 2 -35 4 -35 2 0 6 16 8 35 2 19 0 35 -4 35 -4 0
-8 -16 -8 -35z"/>
<path d="M9552 7240 c0 -14 2 -19 5 -12 2 6 2 18 0 25 -3 6 -5 1 -5 -13z"/>
<path d="M6332 7230 c0 -14 2 -19 5 -12 2 6 2 18 0 25 -3 6 -5 1 -5 -13z"/>
<path d="M13504 7226 c-3 -7 -4 -33 -2 -57 3 -43 4 -42 8 14 5 58 4 68 -6 43z"/>
<path d="M8583 7190 c0 -25 2 -35 4 -22 2 12 2 32 0 45 -2 12 -4 2 -4 -23z"/>
<path d="M6321 7184 c0 -11 3 -14 6 -6 3 7 2 16 -1 19 -3 4 -6 -2 -5 -13z"/>
<path d="M9535 7108 c-4 -51 -3 -129 2 -173 7 -70 8 -59 8 93 0 94 0 172 -1
172 -1 0 -5 -42 -9 -92z"/>
<path d="M7170 7165 c0 -14 2 -25 4 -25 2 0 6 11 8 25 3 14 1 25 -3 25 -5 0
-9 -11 -9 -25z"/>
<path d="M8250 7149 c0 -16 4 -28 9 -25 8 5 3 56 -5 56 -2 0 -4 -14 -4 -31z"/>
<path d="M9383 7125 c0 -27 2 -38 4 -22 2 15 2 37 0 50 -2 12 -4 0 -4 -28z"/>
<path d="M11622 7145 c0 -16 2 -22 5 -12 2 9 2 23 0 30 -3 6 -5 -1 -5 -18z"/>
<path d="M6301 7128 c-6 -18 -26 -48 -44 -67 -18 -19 -23 -29 -12 -21 11 8 26
22 33 30 17 20 44 81 39 87 -3 2 -10 -11 -16 -29z"/>
<path d="M10303 7115 c0 -27 2 -38 4 -22 2 15 2 37 0 50 -2 12 -4 0 -4 -28z"/>
<path d="M12410 7108 c0 -26 4 -38 8 -30 8 12 4 72 -4 72 -2 0 -4 -19 -4 -42z"/>
<path d="M12773 7095 c0 -22 2 -30 4 -17 2 12 2 30 0 40 -3 9 -5 -1 -4 -23z"/>
<path d="M7162 7100 c0 -14 2 -19 5 -12 2 6 2 18 0 25 -3 6 -5 1 -5 -13z"/>
<path d="M8571 7104 c0 -11 3 -14 6 -6 3 7 2 16 -1 19 -3 4 -6 -2 -5 -13z"/>
<path d="M8261 7095 c-1 -37 37 -104 71 -125 27 -17 45 -20 97 -17 58 3 66 6
97 40 19 20 34 42 34 48 0 7 -10 -3 -23 -22 -29 -43 -60 -59 -120 -59 -82 0
-115 27 -143 115 -7 22 -13 31 -13 20z"/>
<path d="M13491 7073 c0 -29 2 -33 8 -18 7 18 4 55 -5 55 -2 0 -4 -17 -3 -37z"/>
<path d="M11631 7074 c0 -11 3 -14 6 -6 3 7 2 16 -1 19 -3 4 -6 -2 -5 -13z"/>
<path d="M9370 7043 c0 -21 3 -24 9 -14 5 8 7 20 4 28 -8 21 -13 15 -13 -14z"/>
<path d="M7150 7049 c0 -5 5 -7 10 -4 6 3 10 8 10 11 0 2 -4 4 -10 4 -5 0 -10
-5 -10 -11z"/>
<path d="M10311 7034 c0 -11 3 -14 6 -6 3 7 2 16 -1 19 -3 4 -6 -2 -5 -13z"/>
<path d="M11641 7038 c-2 -41 87 -278 104 -278 2 0 -9 29 -26 65 -16 36 -40
102 -53 147 -14 46 -25 75 -25 66z"/>
<path d="M12420 7034 c0 -8 5 -12 10 -9 6 4 8 11 5 16 -9 14 -15 11 -15 -7z"/>
<path d="M12762 7030 c0 -14 2 -19 5 -12 2 6 2 18 0 25 -3 6 -5 1 -5 -13z"/>
<path d="M5961 7018 l-1 -27 93 6 c50 3 94 7 96 9 2 2 -37 4 -87 4 -78 0 -91
2 -95 18 -3 11 -5 7 -6 -10z"/>
<path d="M13482 7005 c0 -16 2 -22 5 -12 2 9 2 23 0 30 -3 6 -5 -1 -5 -18z"/>
<path d="M6178 7013 c7 -3 16 -2 19 1 4 3 -2 6 -13 5 -11 0 -14 -3 -6 -6z"/>
<path d="M9362 6980 c0 -14 2 -19 5 -12 2 6 2 18 0 25 -3 6 -5 1 -5 -13z"/>
<path d="M12737 6959 c-11 -22 -31 -46 -45 -54 -15 -8 -22 -14 -16 -15 20 0
61 38 74 70 19 45 8 44 -13 -1z"/>
<path d="M12440 6975 c0 -25 53 -85 74 -85 6 0 0 7 -13 16 -12 9 -31 30 -42
48 -10 17 -19 26 -19 21z"/>
<path d="M13471 6954 c0 -11 3 -14 6 -6 3 7 2 16 -1 19 -3 4 -6 -2 -5 -13z"/>
<path d="M7116 6944 c-8 -20 -8 -24 2 -24 4 0 8 9 9 20 2 24 -3 26 -11 4z"/>
<path d="M9333 6872 c-11 -43 -20 -78 -18 -80 3 -3 34 86 36 103 1 6 5 18 10
27 5 9 6 19 2 21 -5 3 -18 -29 -30 -71z"/>
<path d="M13461 6914 c0 -11 3 -14 6 -6 3 7 2 16 -1 19 -3 4 -6 -2 -5 -13z"/>
<path d="M7052 6826 c-23 -35 -76 -96 -118 -135 -93 -87 -195 -139 -339 -175
-55 -14 -93 -26 -85 -27 8 -1 20 0 25 1 6 1 34 8 63 15 28 7 52 10 52 7 0 -2
7 1 15 8 8 7 15 9 15 5 0 -4 7 -2 15 5 8 7 15 9 15 4 0 -5 4 -4 8 1 4 6 32 21
62 35 30 14 64 33 74 43 11 9 23 17 28 17 4 0 17 8 27 18 84 76 101 94 101
102 0 6 9 15 20 22 11 7 20 18 20 24 0 5 9 20 20 32 12 12 18 22 15 22 -3 0
-1 9 5 20 21 39 4 19 -38 -44z"/>
<path d="M12557 6883 c18 -2 50 -2 70 0 21 2 7 4 -32 4 -38 0 -55 -2 -38 -4z"/>
<path d="M13450 6879 c0 -5 5 -7 10 -4 6 3 10 8 10 11 0 2 -4 4 -10 4 -5 0
-10 -5 -10 -11z"/>
<path d="M13432 6835 c-15 -32 -15 -35 0 -35 6 0 8 3 5 7 -4 3 0 17 8 30 9 13
12 23 7 23 -5 0 -14 -11 -20 -25z"/>
<path d="M9551 6824 c0 -11 3 -14 6 -6 3 7 2 16 -1 19 -3 4 -6 -2 -5 -13z"/>
<path d="M9561 6784 c0 -11 3 -14 6 -6 3 7 2 16 -1 19 -3 4 -6 -2 -5 -13z"/>
<path d="M11401 6741 c0 -37 3 -61 8 -55 4 5 5 34 1 64 l-7 55 -2 -64z"/>
<path d="M13381 6741 c-43 -67 -167 -181 -235 -217 -31 -16 -56 -32 -56 -36 0
-6 79 31 90 42 13 13 79 60 85 60 9 0 79 73 79 83 1 5 9 14 19 21 9 7 17 17
17 23 0 5 9 19 20 31 12 12 17 22 13 22 -4 0 -1 5 7 10 8 5 10 10 4 10 -6 0
-25 -22 -43 -49z"/>
<path d="M9270 6713 c-69 -130 -190 -223 -342 -263 -46 -12 -62 -19 -43 -19
17 0 55 9 85 20 30 11 61 21 68 21 6 1 12 6 12 11 0 6 3 8 6 4 3 -3 14 2 25
11 11 9 22 16 25 14 3 -2 14 7 24 20 11 13 19 20 20 16 0 -9 64 55 65 65 0 5
8 14 18 21 9 7 17 18 17 25 0 6 5 11 10 11 6 0 9 3 8 8 -1 4 8 27 21 50 12 24
21 45 19 47 -2 2 -19 -26 -38 -62z"/>
<path d="M9570 6755 c0 -5 5 -17 10 -25 5 -8 10 -10 10 -5 0 6 -5 17 -10 25
-5 8 -10 11 -10 5z"/>
<path d="M11800 6681 c33 -43 125 -122 165 -142 11 -6 7 0 -10 13 -16 12 -66
56 -109 98 -62 58 -72 65 -46 31z"/>
<path d="M9590 6704 c1 -18 50 -89 92 -132 41 -42 131 -102 153 -101 6 0 -10
11 -35 24 -67 35 -128 92 -172 159 -21 32 -38 55 -38 50z"/>
<path d="M10617 6630 c-41 -52 -72 -80 -143 -127 -13 -8 -14 -12 -4 -10 8 1
23 10 34 20 11 9 23 17 26 17 10 0 110 101 110 111 0 5 4 9 9 9 9 0 24 30 18
36 -2 2 -25 -23 -50 -56z"/>
<path d="M8253 6410 l1 -275 6 260 c5 251 6 258 23 232 9 -14 17 -29 17 -32 0
-16 153 -135 174 -135 6 0 -10 13 -35 29 -44 28 -139 123 -171 171 -16 24 -17
11 -15 -250z"/>
<path d="M10672 6630 c0 -14 2 -19 5 -12 2 6 2 18 0 25 -3 6 -5 1 -5 -13z"/>
<path d="M11411 6634 c-1 -22 28 -128 34 -122 1 1 -5 35 -15 73 -11 39 -19 61
-19 49z"/>
<path d="M10677 6593 c-3 -5 -1 -17 4 -28 7 -17 8 -17 8 8 1 27 -4 34 -12 20z"/>
<path d="M10692 6520 c0 -14 2 -19 5 -12 2 6 2 18 0 25 -3 6 -5 1 -5 -13z"/>
<path d="M12017 6510 c14 -13 173 -68 177 -61 2 3 -39 20 -91 37 -52 18 -91
28 -86 24z"/>
<path d="M6430 6480 c0 -12 8 -12 35 0 18 8 17 9 -7 9 -16 1 -28 -3 -28 -9z"/>
<path d="M10373 6466 c-35 -12 -63 -24 -63 -28 0 -4 18 -1 40 7 22 8 40 12 40
9 0 -2 10 2 23 11 13 8 27 12 30 8 4 -3 7 -1 7 5 0 14 1 14 -77 -12z"/>
<path d="M10700 6478 c0 -5 26 -7 58 -7 61 1 55 6 -15 11 -24 2 -43 0 -43 -4z"/>
<path d="M13005 6469 c-46 -15 -51 -18 -20 -13 22 3 53 12 70 19 42 19 21 16
-50 -6z"/>
<path d="M6180 6470 c30 -3 69 -3 85 1 19 4 -1 7 -55 7 -78 -1 -80 -1 -30 -8z"/>
<path d="M9860 6460 c8 -5 22 -9 30 -9 10 0 8 3 -5 9 -27 12 -43 12 -25 0z"/>
<path d="M9925 6440 c11 -5 29 -8 40 -8 16 0 15 2 -5 8 -34 11 -60 11 -35 0z"/>
<path d="M12218 6443 c6 -2 18 -2 25 0 6 3 1 5 -13 5 -14 0 -19 -2 -12 -5z"/>
<path d="M12910 6440 c0 -5 7 -7 15 -4 8 4 15 8 15 10 0 2 -7 4 -15 4 -8 0
-15 -4 -15 -10z"/>
<path d="M8558 6433 c6 -2 18 -2 25 0 6 3 1 5 -13 5 -14 0 -19 -2 -12 -5z"/>
<path d="M10243 6433 c9 -2 25 -2 35 0 9 3 1 5 -18 5 -19 0 -27 -2 -17 -5z"/>
<path d="M12260 6436 c0 -9 40 -13 46 -5 3 5 -6 9 -20 9 -14 0 -26 -2 -26 -4z"/>
<path d="M12840 6431 c0 -5 9 -7 20 -4 11 3 20 7 20 9 0 2 -9 4 -20 4 -11 0
-20 -4 -20 -9z"/>
<path d="M8613 6424 c8 -8 227 -7 235 1 3 3 -50 5 -118 5 -68 0 -120 -3 -117
-6z"/>
<path d="M10023 6424 c7 -8 128 -6 135 1 3 3 -28 5 -68 5 -40 0 -70 -3 -67 -6z"/>
<path d="M12342 6424 c8 -7 199 -6 206 1 3 3 -43 5 -103 5 -60 0 -106 -3 -103
-6z"/>
<path d="M12642 6425 c7 -8 138 -8 145 -1 4 3 -29 6 -72 6 -43 0 -76 -2 -73
-5z"/>
<path d="M8263 5995 c0 -27 2 -38 4 -22 2 15 2 37 0 50 -2 12 -4 0 -4 -28z"/>
<path d="M8253 5875 c0 -33 2 -45 4 -27 2 18 2 45 0 60 -2 15 -4 0 -4 -33z"/>
</g>
</svg>
